<?xml version="1.0" encoding="UTF-8" standalone="no"?>
<svg
   xmlns:dc="http://purl.org/dc/elements/1.1/"
   xmlns:cc="http://creativecommons.org/ns#"
   xmlns:rdf="http://www.w3.org/1999/02/22-rdf-syntax-ns#"
   xmlns:svg="http://www.w3.org/2000/svg"
   xmlns="http://www.w3.org/2000/svg"
   xmlns:sodipodi="http://sodipodi.sourceforge.net/DTD/sodipodi-0.dtd"
   xmlns:inkscape="http://www.inkscape.org/namespaces/inkscape"
   width="175"
   height="30"
   viewBox="0 0 175 19"
   fill="none"
   version="1.1"
   id="svg6"
   sodipodi:docname="logo.svg"
   inkscape:version="0.92.4 (5da689c313, 2019-01-14)">
  <metadata
     id="metadata12">
    <rdf:RDF>
      <cc:Work
         rdf:about="">
        <dc:format>image/svg+xml</dc:format>
        <dc:type
           rdf:resource="http://purl.org/dc/dcmitype/StillImage" />
      </cc:Work>
    </rdf:RDF>
  </metadata>
  <defs
     id="defs10" />
  <sodipodi:namedview
     pagecolor="#ffffff"
     bordercolor="#666666"
     borderopacity="1"
     objecttolerance="10"
     gridtolerance="10"
     guidetolerance="10"
     inkscape:pageopacity="0"
     inkscape:pageshadow="2"
     inkscape:window-width="1856"
     inkscape:window-height="1012"
     id="namedview8"
     showgrid="false"
     inkscape:zoom="4.4931586"
     inkscape:cx="46.971632"
     inkscape:cy="-1.2833512"
     inkscape:window-x="1344"
     inkscape:window-y="32"
     inkscape:window-maximized="1"
     inkscape:current-layer="svg6" />
  <text
     xml:space="preserve"
     style="font-style:normal;font-weight:normal;font-size:40px;line-height:1.25;font-family:sans-serif;letter-spacing:0px;word-spacing:0px;fill:#000000;fill-opacity:1;stroke:none"
     x="4.228651"
     y="19.826227"
     id="text15"><tspan
       sodipodi:role="line"
       id="tspan13"
       x="4.228651"
       y="55.21685" /></text>
  <path
     id="path17"
     d="m 29.575478,16.8279 c 0.410777,0.384598 0.810869,0.787222 1.256358,1.132516 0.478072,0.40791 0.964738,0.800972 1.403453,1.252428 0.516447,0.457362 1.01985,0.928521 1.53701,1.385182 0.577518,0.422069 1.114554,0.889606 1.694422,1.308831 0.55781,0.44669 1.111464,0.900961 1.647738,1.373059 0.432985,0.319923 0.876054,0.63455 1.274177,0.998236 0.384812,0.305575 0.771896,0.611166 1.180206,0.884871 0.441307,0.310907 0.790468,0.721305 1.16149,1.106774 0.255691,0.282642 0.496965,0.583447 0.778265,0.841329 0.220405,0.224705 0.428956,0.464774 0.66656,0.67194 0.105504,0.124339 0.226571,0.226935 0.335127,0.348555 0,0 -2.828012,1.717096 -2.828012,1.717096 v 0 c -0.105381,-0.110203 -0.216823,-0.213781 -0.320896,-0.325234 -0.229143,-0.220584 -0.450461,-0.449547 -0.66939,-0.680135 -0.271082,-0.275063 -0.523021,-0.568664 -0.773372,-0.862484 -0.346812,-0.377507 -0.695738,-0.754606 -1.118275,-1.050941 -0.413797,-0.291885 -0.83104,-0.582907 -1.213328,-0.915569 -0.400565,-0.358331 -0.834695,-0.675648 -1.260093,-1.003476 -0.524085,-0.469902 -1.059521,-0.930073 -1.623661,-1.351468 -0.581271,-0.429883 -1.131202,-0.897934 -1.704625,-1.337927 -0.522691,-0.461597 -1.046098,-0.922351 -1.556445,-1.397298 -0.441935,-0.430054 -0.912096,-0.825971 -1.389623,-1.215797 -0.441456,-0.3554 -0.832894,-0.768117 -1.276554,-1.122068 0,0 2.799468,-1.75842 2.799468,-1.75842 z"
     inkscape:connector-curvature="0" />
  <text
     xml:space="preserve"
     style="font-style:normal;font-weight:normal;font-size:40px;line-height:1.25;font-family:sans-serif;letter-spacing:0px;word-spacing:0px;fill:#000000;fill-opacity:1;stroke:none"
     x="8.4573021"
     y="19.826227"
     id="text21"><tspan
       sodipodi:role="line"
       id="tspan19"
       x="8.4573021"
       y="55.21685" /></text>
  <text
     xml:space="preserve"
     style="font-style:normal;font-weight:normal;font-size:40px;line-height:1.25;font-family:sans-serif;letter-spacing:0px;word-spacing:0px;fill:#000000;fill-opacity:1;stroke:none"
     x="2.4481664"
     y="22.496956"
     id="text25"><tspan
       sodipodi:role="line"
       id="tspan23"
       x="2.4481664"
       y="22.496956"
       style="font-style:normal;font-variant:normal;font-weight:normal;font-stretch:normal;font-size:41.33333333px;font-family:sans-serif;-inkscape-font-specification:'sans-serif, Normal';font-variant-ligatures:normal;font-variant-caps:normal;font-variant-numeric:normal;font-feature-settings:normal;text-align:start;writing-mode:lr;text-anchor:start;fill:#000000">c<tspan
   style="fill:#00ffff"
   id="tspan15">ean</tspan>v<tspan
   style="fill:#00ffff"
   id="tspan17">er</tspan></tspan></text>
</svg>
